<svg width="82" height="72" viewBox="0 0 82 72" fill="none" xmlns="http://www.w3.org/2000/svg">
<g filter="url(#filter0_d_109_30)">
<path d="M36.8149 58C36.8149 58.9889 36.5238 59.9556 35.9785 60.7778C35.4331 61.6001 34.658 62.241 33.7511 62.6194C32.8443 62.9978 31.8464 63.0968 30.8837 62.9039C29.9209 62.711 29.0366 62.2348 28.3425 61.5355C27.6485 60.8363 27.1758 59.9454 26.9843 58.9754C26.7928 58.0055 26.8911 57.0002 27.2667 56.0866C27.6423 55.1729 28.2785 54.3921 29.0946 53.8426C29.9108 53.2932 30.8703 53 31.8519 53C33.1661 53.0066 34.4247 53.5355 35.354 54.4717C36.2834 55.408 36.8083 56.6759 36.8149 58V58ZM57.6594 53C56.6778 53 55.7182 53.2932 54.9021 53.8426C54.0859 54.3921 53.4498 55.1729 53.0742 56.0866C52.6985 57.0002 52.6002 58.0055 52.7917 58.9754C52.9832 59.9454 53.4559 60.8363 54.15 61.5355C54.8441 62.2348 55.7284 62.711 56.6911 62.9039C57.6538 63.0968 58.6517 62.9978 59.5586 62.6194C60.4655 62.241 61.2406 61.6001 61.7859 60.7778C62.3313 59.9556 62.6223 58.9889 62.6223 58C62.6158 56.6759 62.0908 55.408 61.1615 54.4717C60.2322 53.5355 58.9736 53.0066 57.6594 53V53ZM69.8931 22.825L63.8879 43.925C63.4694 45.3842 62.5927 46.6675 61.3892 47.5825C60.1858 48.4975 58.7204 48.9948 57.2127 49H32.2986C30.7909 48.9948 29.3255 48.4975 28.122 47.5825C26.9185 46.6675 26.0419 45.3842 25.6234 43.925L19.643 22.875C19.643 22.85 19.6182 22.8 19.6182 22.775L17.4096 15H14.9778C14.188 15 13.4306 14.6839 12.8722 14.1213C12.3137 13.5587 12 12.7956 12 12C12 11.2044 12.3137 10.4413 12.8722 9.87868C13.4306 9.31607 14.188 9 14.9778 9H18.1541C19.2324 9.00824 20.2796 9.36485 21.1417 10.0174C22.0038 10.6699 22.6353 11.5839 22.9434 12.625L24.73 19H67.0146C67.4751 19.0027 67.929 19.112 68.3409 19.3197C68.7528 19.5273 69.1118 19.8276 69.3901 20.1974C69.6683 20.5671 69.8584 20.9965 69.9457 21.4521C70.0329 21.9077 70.0149 22.3775 69.8931 22.825V22.825ZM63.069 25H26.4423L31.3308 42.275C31.3943 42.484 31.5224 42.6671 31.6965 42.7975C31.8707 42.928 32.0816 42.9989 32.2986 43H57.2127C57.4296 42.9989 57.6406 42.928 57.8147 42.7975C57.9888 42.6671 58.117 42.484 58.1805 42.275L63.069 25Z" fill="#F2EFEB"/>
</g>
<defs>
<filter id="filter0_d_109_30" x="-4" y="0" width="90" height="80" filterUnits="userSpaceOnUse" color-interpolation-filters="sRGB">
<feFlood flood-opacity="0" result="BackgroundImageFix"/>
<feColorMatrix in="SourceAlpha" type="matrix" values="0 0 0 0 0 0 0 0 0 0 0 0 0 0 0 0 0 0 127 0" result="hardAlpha"/>
<feOffset dy="4"/>
<feGaussianBlur stdDeviation="2"/>
<feComposite in2="hardAlpha" operator="out"/>
<feColorMatrix type="matrix" values="0 0 0 0 0 0 0 0 0 0 0 0 0 0 0 0 0 0 0.25 0"/>
<feBlend mode="normal" in2="BackgroundImageFix" result="effect1_dropShadow_109_30"/>
<feBlend mode="normal" in="SourceGraphic" in2="effect1_dropShadow_109_30" result="shape"/>
</filter>
</defs>
</svg>
