<svg width="66" height="54" viewBox="0 0 66 54" fill="none" xmlns="http://www.w3.org/2000/svg">
<g clip-path="url(#clip0_119_28)" filter="url(#filter0_d_119_28)">
<path d="M38.8 2.875H50.4C52.004 2.875 53.3 4.15977 53.3 5.75C53.3 7.34023 52.004 8.625 50.4 8.625H40.105C39.6337 10.943 38.0297 12.8566 35.9 13.773V40.25H50.4C52.004 40.25 53.3 41.5348 53.3 43.125C53.3 44.7152 52.004 46 50.4 46H15.6C13.9959 46 12.7 44.7152 12.7 43.125C12.7 41.5348 13.9959 40.25 15.6 40.25H30.1V13.773C27.9703 12.8477 26.3662 10.934 25.895 8.625H15.6C13.9959 8.625 12.7 7.34023 12.7 5.75C12.7 4.15977 13.9959 2.875 15.6 2.875H27.2C28.5231 1.13203 30.6256 0 33 0C35.3743 0 37.4768 1.13203 38.8 2.875ZM15.4006 15.9293L8.63091 28.75H22.569L15.7993 15.9293C15.7631 15.8574 15.6815 15.8125 15.6 15.8125C15.5184 15.8125 15.4459 15.8574 15.4006 15.9293ZM15.6 11.5C17.3037 11.5 18.8625 12.4344 19.6509 13.9258L26.7015 27.2676C26.9825 27.7887 27.2543 28.5254 27.2 29.4059C27.1365 30.493 26.765 32.5684 24.9525 34.3563C23.1128 36.1711 20.1493 37.375 15.6 37.375C11.0506 37.375 8.08716 36.1711 6.24747 34.3652C4.43497 32.5684 4.05435 30.502 3.99997 29.4148C3.9456 28.5344 4.22654 27.7977 4.49841 27.2766L11.549 13.9258C12.3375 12.4344 13.8962 11.5 15.6 11.5ZM50.4 15.8125C50.3184 15.8125 50.2459 15.8574 50.2006 15.9293L43.4309 28.75H57.369L50.5993 15.9293C50.5631 15.8574 50.4815 15.8125 50.4 15.8125ZM46.349 13.9258C47.1375 12.4344 48.6962 11.5 50.4 11.5C52.1037 11.5 53.6625 12.4344 54.4509 13.9258L61.5015 27.2676C61.7825 27.7887 62.0544 28.5254 62 29.4059C61.9365 30.493 61.565 32.5684 59.7525 34.3563C57.9128 36.1711 54.9493 37.375 50.4 37.375C45.8506 37.375 42.8872 36.1711 41.0475 34.3652C39.235 32.5684 38.8544 30.502 38.8 29.4148C38.7456 28.5344 39.0265 27.7977 39.2984 27.2766L46.349 13.9258Z" fill="#F2EFEB"/>
</g>
<defs>
<filter id="filter0_d_119_28" x="0" y="0" width="66" height="54" filterUnits="userSpaceOnUse" color-interpolation-filters="sRGB">
<feFlood flood-opacity="0" result="BackgroundImageFix"/>
<feColorMatrix in="SourceAlpha" type="matrix" values="0 0 0 0 0 0 0 0 0 0 0 0 0 0 0 0 0 0 127 0" result="hardAlpha"/>
<feOffset dy="4"/>
<feGaussianBlur stdDeviation="2"/>
<feComposite in2="hardAlpha" operator="out"/>
<feColorMatrix type="matrix" values="0 0 0 0 0 0 0 0 0 0 0 0 0 0 0 0 0 0 0.25 0"/>
<feBlend mode="normal" in2="BackgroundImageFix" result="effect1_dropShadow_119_28"/>
<feBlend mode="normal" in="SourceGraphic" in2="effect1_dropShadow_119_28" result="shape"/>
</filter>
<clipPath id="clip0_119_28">
<rect width="58" height="46" fill="white" transform="translate(4)"/>
</clipPath>
</defs>
</svg>
