<svg width="58" height="58" viewBox="0 0 58 58" fill="none" xmlns="http://www.w3.org/2000/svg">
<path d="M12.6875 18.125C12.2068 18.125 11.7458 18.316 11.4059 18.6559C11.066 18.9958 10.875 19.4568 10.875 19.9375C10.875 20.4182 11.066 20.8792 11.4059 21.2191C11.7458 21.559 12.2068 21.75 12.6875 21.75H38.0625C38.5432 21.75 39.0042 21.559 39.3441 21.2191C39.684 20.8792 39.875 20.4182 39.875 19.9375C39.875 19.4568 39.684 18.9958 39.3441 18.6559C39.0042 18.316 38.5432 18.125 38.0625 18.125H12.6875ZM12.6875 25.375C12.2068 25.375 11.7458 25.566 11.4059 25.9059C11.066 26.2458 10.875 26.7068 10.875 27.1875V34.4375C10.875 34.9182 11.066 35.3792 11.4059 35.7191C11.7458 36.059 12.2068 36.25 12.6875 36.25H19.9375C20.4182 36.25 20.8792 36.059 21.2191 35.7191C21.559 35.3792 21.75 34.9182 21.75 34.4375V27.1875C21.75 26.7068 21.559 26.2458 21.2191 25.9059C20.8792 25.566 20.4182 25.375 19.9375 25.375H12.6875ZM14.5 32.625V29H18.125V32.625H14.5ZM27.1875 25.375C26.7068 25.375 26.2458 25.566 25.9059 25.9059C25.566 26.2458 25.375 26.7068 25.375 27.1875C25.375 27.6682 25.566 28.1292 25.9059 28.4691C26.2458 28.809 26.7068 29 27.1875 29H38.0625C38.5432 29 39.0042 28.809 39.3441 28.4691C39.684 28.1292 39.875 27.6682 39.875 27.1875C39.875 26.7068 39.684 26.2458 39.3441 25.9059C39.0042 25.566 38.5432 25.375 38.0625 25.375H27.1875ZM27.1875 32.625C26.7068 32.625 26.2458 32.816 25.9059 33.1559C25.566 33.4958 25.375 33.9568 25.375 34.4375C25.375 34.9182 25.566 35.3792 25.9059 35.7191C26.2458 36.059 26.7068 36.25 27.1875 36.25H38.0625C38.5432 36.25 39.0042 36.059 39.3441 35.7191C39.684 35.3792 39.875 34.9182 39.875 34.4375C39.875 33.9568 39.684 33.4958 39.3441 33.1559C39.0042 32.816 38.5432 32.625 38.0625 32.625H27.1875ZM3.625 14.5C3.625 12.5772 4.38884 10.7331 5.74848 9.37348C7.10811 8.01384 8.95218 7.25 10.875 7.25H39.875C41.7978 7.25 43.6419 8.01384 45.0015 9.37348C46.3612 10.7331 47.125 12.5772 47.125 14.5C49.0478 14.5 50.8919 15.2638 52.2515 16.6235C53.6112 17.9831 54.375 19.8272 54.375 21.75V38.0625C54.375 40.466 53.4202 42.7711 51.7207 44.4707C50.0211 46.1702 47.716 47.125 45.3125 47.125H12.6875C10.284 47.125 7.97889 46.1702 6.27934 44.4707C4.5798 42.7711 3.625 40.466 3.625 38.0625V14.5ZM45.3125 38.0625C44.8318 38.0625 44.3708 37.8715 44.0309 37.5316C43.691 37.1917 43.5 36.7307 43.5 36.25V14.5C43.5 13.5386 43.1181 12.6166 42.4383 11.9367C41.7584 11.2569 40.8364 10.875 39.875 10.875H10.875C9.91359 10.875 8.99156 11.2569 8.31174 11.9367C7.63192 12.6166 7.25 13.5386 7.25 14.5V38.0625C7.25 39.5046 7.82288 40.8877 8.84261 41.9074C9.86234 42.9271 11.2454 43.5 12.6875 43.5H45.3125C46.7546 43.5 48.1377 42.9271 49.1574 41.9074C50.1771 40.8877 50.75 39.5046 50.75 38.0625V21.75C50.75 20.7886 50.3681 19.8666 49.6883 19.1867C49.0084 18.5069 48.0864 18.125 47.125 18.125V36.25C47.125 36.7307 46.934 37.1917 46.5941 37.5316C46.2542 37.8715 45.7932 38.0625 45.3125 38.0625Z" fill="#353331"/>
</svg>
