<svg width="66" height="54" viewBox="0 0 66 54" fill="none" xmlns="http://www.w3.org/2000/svg">
<g clip-path="url(#clip0_151_9)" filter="url(#filter0_d_151_9)">
<path d="M38.7999 2.875H50.3999C52.0039 2.875 53.2999 4.15977 53.2999 5.75C53.2999 7.34023 52.0039 8.625 50.3999 8.625H40.1049C39.6336 10.943 38.0295 12.8566 35.8999 13.773V40.25H50.3999C52.0039 40.25 53.2999 41.5348 53.2999 43.125C53.2999 44.7152 52.0039 46 50.3999 46H15.5999C13.9958 46 12.6999 44.7152 12.6999 43.125C12.6999 41.5348 13.9958 40.25 15.5999 40.25H30.0999V13.773C27.9702 12.8477 26.3661 10.934 25.8949 8.625H15.5999C13.9958 8.625 12.6999 7.34023 12.6999 5.75C12.6999 4.15977 13.9958 2.875 15.5999 2.875H27.1999C28.523 1.13203 30.6255 0 32.9999 0C35.3742 0 37.4767 1.13203 38.7999 2.875ZM15.4005 15.9293L8.63079 28.75H22.5689L15.7992 15.9293C15.763 15.8574 15.6814 15.8125 15.5999 15.8125C15.5183 15.8125 15.4458 15.8574 15.4005 15.9293ZM15.5999 11.5C17.3036 11.5 18.8624 12.4344 19.6508 13.9258L26.7014 27.2676C26.9824 27.7887 27.2542 28.5254 27.1999 29.4059C27.1364 30.493 26.7649 32.5684 24.9524 34.3563C23.1127 36.1711 20.1492 37.375 15.5999 37.375C11.0505 37.375 8.08704 36.1711 6.24735 34.3652C4.43485 32.5684 4.05423 30.502 3.99985 29.4148C3.94548 28.5344 4.22641 27.7977 4.49829 27.2766L11.5489 13.9258C12.3374 12.4344 13.8961 11.5 15.5999 11.5ZM50.3999 15.8125C50.3183 15.8125 50.2458 15.8574 50.2005 15.9293L43.4308 28.75H57.3689L50.5992 15.9293C50.563 15.8574 50.4814 15.8125 50.3999 15.8125ZM46.3489 13.9258C47.1374 12.4344 48.6961 11.5 50.3999 11.5C52.1036 11.5 53.6624 12.4344 54.4508 13.9258L61.5014 27.2676C61.7824 27.7887 62.0542 28.5254 61.9999 29.4059C61.9364 30.493 61.5649 32.5684 59.7524 34.3563C57.9127 36.1711 54.9492 37.375 50.3999 37.375C45.8505 37.375 42.887 36.1711 41.0474 34.3652C39.2349 32.5684 38.8542 30.502 38.7999 29.4148C38.7455 28.5344 39.0264 27.7977 39.2983 27.2766L46.3489 13.9258Z" fill="#F2EFEB"/>
</g>
<defs>
<filter id="filter0_d_151_9" x="0" y="0" width="66" height="54" filterUnits="userSpaceOnUse" color-interpolation-filters="sRGB">
<feFlood flood-opacity="0" result="BackgroundImageFix"/>
<feColorMatrix in="SourceAlpha" type="matrix" values="0 0 0 0 0 0 0 0 0 0 0 0 0 0 0 0 0 0 127 0" result="hardAlpha"/>
<feOffset dy="4"/>
<feGaussianBlur stdDeviation="2"/>
<feComposite in2="hardAlpha" operator="out"/>
<feColorMatrix type="matrix" values="0 0 0 0 0 0 0 0 0 0 0 0 0 0 0 0 0 0 0.25 0"/>
<feBlend mode="normal" in2="BackgroundImageFix" result="effect1_dropShadow_151_9"/>
<feBlend mode="normal" in="SourceGraphic" in2="effect1_dropShadow_151_9" result="shape"/>
</filter>
<clipPath id="clip0_151_9">
<rect width="58" height="46" fill="white" transform="translate(4)"/>
</clipPath>
</defs>
</svg>
