<svg width="64" height="57" viewBox="0 0 64 57" fill="none" xmlns="http://www.w3.org/2000/svg">
<g filter="url(#filter0_d_143_622)">
<path d="M53 18.6667V16.3333L46 21L39 16.3333V18.6667L45.3467 22.9133C45.5372 23.0388 45.7602 23.1056 45.9883 23.1056C46.2164 23.1056 46.4395 23.0388 46.63 22.9133L53 18.6667ZM55.3333 7H8.66667C6.1 7 4 9.1 4 11.6667V44.3333C4 46.9 6.1 49 8.66667 49H55.3333C57.9 49 59.9767 46.9 59.9767 44.3333L60 11.6667C60 9.1 57.9 7 55.3333 7ZM22.6667 14C26.54 14 29.6667 17.1267 29.6667 21C29.6667 24.8733 26.54 28 22.6667 28C18.7933 28 15.6667 24.8733 15.6667 21C15.6667 17.1267 18.7933 14 22.6667 14ZM36.6667 42H8.66667V39.6667C8.66667 35 18 32.4333 22.6667 32.4333C27.3333 32.4333 36.6667 35 36.6667 39.6667V42ZM54.1667 28H37.8333C37.18 28 36.6667 27.4867 36.6667 26.8333V15.1667C36.6667 14.5133 37.18 14 37.8333 14H54.1667C54.82 14 55.3333 14.5133 55.3333 15.1667V26.8333C55.3333 27.4867 54.82 28 54.1667 28Z" fill="#F2EFEB"/>
</g>
<defs>
<filter id="filter0_d_143_622" x="0" y="0" width="64" height="64" filterUnits="userSpaceOnUse" color-interpolation-filters="sRGB">
<feFlood flood-opacity="0" result="BackgroundImageFix"/>
<feColorMatrix in="SourceAlpha" type="matrix" values="0 0 0 0 0 0 0 0 0 0 0 0 0 0 0 0 0 0 127 0" result="hardAlpha"/>
<feOffset dy="4"/>
<feGaussianBlur stdDeviation="2"/>
<feComposite in2="hardAlpha" operator="out"/>
<feColorMatrix type="matrix" values="0 0 0 0 0 0 0 0 0 0 0 0 0 0 0 0 0 0 0.25 0"/>
<feBlend mode="normal" in2="BackgroundImageFix" result="effect1_dropShadow_143_622"/>
<feBlend mode="normal" in="SourceGraphic" in2="effect1_dropShadow_143_622" result="shape"/>
</filter>
</defs>
</svg>
