<svg width="62" height="62" viewBox="0 0 62 62" fill="none" xmlns="http://www.w3.org/2000/svg">
<g clip-path="url(#clip0_143_990)" filter="url(#filter0_d_143_990)">
<path d="M58 26.973C58 12.0825 45.904 0 31 0C16.096 0 4 12.0825 4 26.973C4 35.1743 7.726 42.5655 13.558 47.5267C13.612 47.5807 13.666 47.5808 13.666 47.6348C14.152 48.0128 14.638 48.3907 15.178 48.7687C15.448 48.9307 15.664 49.1434 15.934 49.3594C20.396 52.3846 25.6631 54.0012 31.054 54C36.4449 54.0012 41.712 52.3846 46.174 49.3594C46.444 49.1974 46.66 48.9848 46.93 48.8194C47.416 48.4448 47.956 48.0668 48.442 47.6888C48.496 47.6348 48.55 47.6347 48.55 47.5807C54.274 42.5621 58 35.1743 58 26.973V26.973ZM31 50.6014C25.924 50.6014 21.28 48.9814 17.446 46.2847C17.5 45.8527 17.608 45.4241 17.716 44.9921C18.0378 43.8214 18.5097 42.6971 19.12 41.6475C19.714 40.6215 20.416 39.7035 21.28 38.8935C22.09 38.0835 23.062 37.3309 24.034 36.7369C25.06 36.1429 26.14 35.7109 27.328 35.3869C28.5252 35.0642 29.76 34.9019 31 34.9043C34.6809 34.8782 38.2266 36.2902 40.882 38.8395C42.124 40.0815 43.096 41.5395 43.798 43.2101C44.176 44.1821 44.446 45.2081 44.608 46.2847C40.6227 49.0865 35.8716 50.5937 31 50.6014ZM22.738 25.6264C22.2622 24.537 22.0229 23.3591 22.036 22.1704C22.036 20.9857 22.252 19.7977 22.738 18.7178C23.224 17.6378 23.872 16.6691 24.682 15.8591C25.492 15.0491 26.464 14.4045 27.544 13.9185C28.624 13.4325 29.812 13.2165 31 13.2165C32.242 13.2165 33.376 13.4325 34.456 13.9185C35.536 14.4045 36.508 15.0525 37.318 15.8591C38.128 16.6691 38.776 17.6411 39.262 18.7178C39.748 19.7977 39.964 20.9857 39.964 22.1704C39.964 23.4124 39.748 24.5464 39.262 25.623C38.793 26.687 38.1342 27.6568 37.318 28.485C36.4895 29.3 35.5198 29.9576 34.456 30.4256C32.2245 31.3427 29.7215 31.3427 27.49 30.4256C26.4262 29.9576 25.4565 29.3 24.628 28.485C23.8106 27.6689 23.1676 26.6952 22.738 25.623V25.6264ZM47.794 43.5341C47.794 43.4261 47.74 43.3721 47.74 43.2641C47.2089 41.5747 46.4261 39.9749 45.418 38.5189C44.409 37.052 43.1689 35.7584 41.746 34.6882C40.6593 33.8708 39.4815 33.1821 38.236 32.6363C38.8026 32.2625 39.3276 31.8291 39.802 31.3436C40.6071 30.5488 41.3141 29.6605 41.908 28.6976C43.104 26.7327 43.7216 24.4704 43.69 22.1704C43.7067 20.4677 43.376 18.7796 42.718 17.2091C42.0684 15.6959 41.1333 14.322 39.964 13.1625C38.7964 12.0151 37.4222 11.099 35.914 10.4625C34.3409 9.8057 32.6506 9.47613 30.946 9.49387C29.2412 9.4772 27.5508 9.80792 25.978 10.4659C24.4567 11.101 23.0792 12.0365 21.928 13.2165C20.7806 14.3829 19.8645 15.7559 19.228 17.2631C18.57 18.8336 18.2393 20.5217 18.256 22.2244C18.256 23.4124 18.418 24.5464 18.742 25.623C19.066 26.757 19.498 27.783 20.092 28.7516C20.632 29.7236 21.388 30.5876 22.198 31.3976C22.684 31.8836 23.224 32.3122 23.818 32.6902C22.5687 33.2507 21.3904 33.9577 20.308 34.7963C18.904 35.8763 17.662 37.1689 16.636 38.5729C15.6176 40.0229 14.834 41.6243 14.314 43.3181C14.26 43.4261 14.26 43.5341 14.26 43.5881C9.994 39.2715 7.348 33.4463 7.348 26.973C7.348 13.9725 17.986 3.34462 31 3.34462C44.014 3.34462 54.652 13.9725 54.652 26.973C54.6449 33.1829 52.1792 39.1373 47.794 43.5341V43.5341Z" fill="#F2EFEB"/>
</g>
<defs>
<filter id="filter0_d_143_990" x="0" y="0" width="62" height="62" filterUnits="userSpaceOnUse" color-interpolation-filters="sRGB">
<feFlood flood-opacity="0" result="BackgroundImageFix"/>
<feColorMatrix in="SourceAlpha" type="matrix" values="0 0 0 0 0 0 0 0 0 0 0 0 0 0 0 0 0 0 127 0" result="hardAlpha"/>
<feOffset dy="4"/>
<feGaussianBlur stdDeviation="2"/>
<feComposite in2="hardAlpha" operator="out"/>
<feColorMatrix type="matrix" values="0 0 0 0 0 0 0 0 0 0 0 0 0 0 0 0 0 0 0.25 0"/>
<feBlend mode="normal" in2="BackgroundImageFix" result="effect1_dropShadow_143_990"/>
<feBlend mode="normal" in="SourceGraphic" in2="effect1_dropShadow_143_990" result="shape"/>
</filter>
<clipPath id="clip0_143_990">
<rect width="54" height="54" fill="white" transform="translate(4)"/>
</clipPath>
</defs>
</svg>
