<svg width="66" height="62" viewBox="0 0 66 62" fill="none" xmlns="http://www.w3.org/2000/svg">
<g filter="url(#filter0_d_163_3280)">
<path d="M28.8149 49C28.8149 49.9889 28.5238 50.9556 27.9785 51.7778C27.4331 52.6001 26.658 53.241 25.7511 53.6194C24.8443 53.9978 23.8464 54.0969 22.8837 53.9039C21.9209 53.711 21.0366 53.2348 20.3425 52.5355C19.6485 51.8363 19.1758 50.9454 18.9843 49.9754C18.7928 49.0055 18.8911 48.0002 19.2667 47.0866C19.6423 46.173 20.2785 45.3921 21.0946 44.8426C21.9108 44.2932 22.8703 44 23.8519 44C25.1661 44.0066 26.4247 44.5355 27.354 45.4717C28.2834 46.408 28.8083 47.6759 28.8149 49ZM49.6594 44C48.6778 44 47.7182 44.2932 46.9021 44.8426C46.0859 45.3921 45.4498 46.173 45.0742 47.0866C44.6985 48.0002 44.6002 49.0055 44.7917 49.9754C44.9832 50.9454 45.4559 51.8363 46.15 52.5355C46.8441 53.2348 47.7284 53.711 48.6911 53.9039C49.6538 54.0969 50.6517 53.9978 51.5586 53.6194C52.4655 53.241 53.2406 52.6001 53.7859 51.7778C54.3313 50.9556 54.6223 49.9889 54.6223 49C54.6158 47.6759 54.0908 46.408 53.1615 45.4717C52.2322 44.5355 50.9736 44.0066 49.6594 44ZM61.8931 13.825L55.8879 34.925C55.4694 36.3843 54.5927 37.6675 53.3892 38.5825C52.1858 39.4975 50.7204 39.9948 49.2127 40H24.2986C22.7909 39.9948 21.3255 39.4975 20.122 38.5825C18.9185 37.6675 18.0419 36.3843 17.6234 34.925L11.643 13.875C11.643 13.85 11.6182 13.8 11.6182 13.775L9.40964 6H6.97778C6.18803 6 5.43062 5.68393 4.87217 5.12132C4.31373 4.55871 4 3.79565 4 3C4 2.20435 4.31373 1.44129 4.87217 0.87868C5.43062 0.316071 6.18803 0 6.97778 0H10.1541C11.2324 0.00823944 12.2796 0.364847 13.1417 1.01738C14.0038 1.66991 14.6353 2.58392 14.9434 3.625L16.73 10H59.0146C59.4751 10.0027 59.929 10.112 60.3409 10.3196C60.7528 10.5273 61.1118 10.8276 61.3901 11.1974C61.6683 11.5671 61.8584 11.9965 61.9457 12.4521C62.0329 12.9077 62.0149 13.3775 61.8931 13.825ZM55.069 16H18.4423L23.3308 33.275C23.3943 33.484 23.5224 33.6671 23.6965 33.7975C23.8707 33.928 24.0816 33.9989 24.2986 34H49.2127C49.4296 33.9989 49.6406 33.928 49.8147 33.7975C49.9888 33.6671 50.117 33.484 50.1805 33.275L55.069 16Z" fill="#F2EFEB"/>
</g>
<defs>
<filter id="filter0_d_163_3280" x="0" y="0" width="66" height="62" filterUnits="userSpaceOnUse" color-interpolation-filters="sRGB">
<feFlood flood-opacity="0" result="BackgroundImageFix"/>
<feColorMatrix in="SourceAlpha" type="matrix" values="0 0 0 0 0 0 0 0 0 0 0 0 0 0 0 0 0 0 127 0" result="hardAlpha"/>
<feOffset dy="4"/>
<feGaussianBlur stdDeviation="2"/>
<feComposite in2="hardAlpha" operator="out"/>
<feColorMatrix type="matrix" values="0 0 0 0 0 0 0 0 0 0 0 0 0 0 0 0 0 0 0.25 0"/>
<feBlend mode="normal" in2="BackgroundImageFix" result="effect1_dropShadow_163_3280"/>
<feBlend mode="normal" in="SourceGraphic" in2="effect1_dropShadow_163_3280" result="shape"/>
</filter>
</defs>
</svg>
