<svg width="52" height="41" viewBox="0 0 52 41" fill="none" xmlns="http://www.w3.org/2000/svg">
<path d="M9.6875 11.125C9.2068 11.125 8.74578 11.316 8.40587 11.6559C8.06596 11.9958 7.875 12.4568 7.875 12.9375C7.875 13.4182 8.06596 13.8792 8.40587 14.2191C8.74578 14.559 9.2068 14.75 9.6875 14.75H35.0625C35.5432 14.75 36.0042 14.559 36.3441 14.2191C36.684 13.8792 36.875 13.4182 36.875 12.9375C36.875 12.4568 36.684 11.9958 36.3441 11.6559C36.0042 11.316 35.5432 11.125 35.0625 11.125H9.6875ZM9.6875 18.375C9.2068 18.375 8.74578 18.566 8.40587 18.9059C8.06596 19.2458 7.875 19.7068 7.875 20.1875V27.4375C7.875 27.9182 8.06596 28.3792 8.40587 28.7191C8.74578 29.059 9.2068 29.25 9.6875 29.25H16.9375C17.4182 29.25 17.8792 29.059 18.2191 28.7191C18.559 28.3792 18.75 27.9182 18.75 27.4375V20.1875C18.75 19.7068 18.559 19.2458 18.2191 18.9059C17.8792 18.566 17.4182 18.375 16.9375 18.375H9.6875ZM11.5 25.625V22H15.125V25.625H11.5ZM24.1875 18.375C23.7068 18.375 23.2458 18.566 22.9059 18.9059C22.566 19.2458 22.375 19.7068 22.375 20.1875C22.375 20.6682 22.566 21.1292 22.9059 21.4691C23.2458 21.809 23.7068 22 24.1875 22H35.0625C35.5432 22 36.0042 21.809 36.3441 21.4691C36.684 21.1292 36.875 20.6682 36.875 20.1875C36.875 19.7068 36.684 19.2458 36.3441 18.9059C36.0042 18.566 35.5432 18.375 35.0625 18.375H24.1875ZM24.1875 25.625C23.7068 25.625 23.2458 25.816 22.9059 26.1559C22.566 26.4958 22.375 26.9568 22.375 27.4375C22.375 27.9182 22.566 28.3792 22.9059 28.7191C23.2458 29.059 23.7068 29.25 24.1875 29.25H35.0625C35.5432 29.25 36.0042 29.059 36.3441 28.7191C36.684 28.3792 36.875 27.9182 36.875 27.4375C36.875 26.9568 36.684 26.4958 36.3441 26.1559C36.0042 25.816 35.5432 25.625 35.0625 25.625H24.1875ZM0.625 7.5C0.625 5.57718 1.38884 3.73311 2.74848 2.37348C4.10811 1.01384 5.95218 0.25 7.875 0.25H36.875C38.7978 0.25 40.6419 1.01384 42.0015 2.37348C43.3612 3.73311 44.125 5.57718 44.125 7.5C46.0478 7.5 47.8919 8.26384 49.2515 9.62348C50.6112 10.9831 51.375 12.8272 51.375 14.75V31.0625C51.375 33.466 50.4202 35.7711 48.7207 37.4707C47.0211 39.1702 44.716 40.125 42.3125 40.125H9.6875C7.28398 40.125 4.97889 39.1702 3.27934 37.4707C1.5798 35.7711 0.625 33.466 0.625 31.0625V7.5ZM42.3125 31.0625C41.8318 31.0625 41.3708 30.8715 41.0309 30.5316C40.691 30.1917 40.5 29.7307 40.5 29.25V7.5C40.5 6.53859 40.1181 5.61656 39.4383 4.93674C38.7584 4.25692 37.8364 3.875 36.875 3.875H7.875C6.91359 3.875 5.99156 4.25692 5.31174 4.93674C4.63192 5.61656 4.25 6.53859 4.25 7.5V31.0625C4.25 32.5046 4.82288 33.8877 5.84261 34.9074C6.86234 35.9271 8.24539 36.5 9.6875 36.5H42.3125C43.7546 36.5 45.1377 35.9271 46.1574 34.9074C47.1771 33.8877 47.75 32.5046 47.75 31.0625V14.75C47.75 13.7886 47.3681 12.8666 46.6883 12.1867C46.0084 11.5069 45.0864 11.125 44.125 11.125V29.25C44.125 29.7307 43.934 30.1917 43.5941 30.5316C43.2542 30.8715 42.7932 31.0625 42.3125 31.0625Z" fill="#353331"/>
</svg>
