<svg width="54" height="34" viewBox="0 0 54 34" fill="none" xmlns="http://www.w3.org/2000/svg">
<path d="M43.3125 12.8281C41.1603 12.8354 39.0624 13.5045 37.3034 14.7447C35.5444 15.9849 34.2095 17.7362 33.4797 19.7609C33.1362 19.6961 32.787 19.6658 32.4375 19.6703C28.6992 19.6703 25.6406 22.8195 25.6406 26.6711C25.6406 30.5226 28.6992 33.6719 32.4375 33.6719H43.3125C46.0766 33.6719 48.7274 32.5738 50.6819 30.6194C52.6364 28.6649 53.7344 26.014 53.7344 23.25C53.7344 20.4859 52.6364 17.8351 50.6819 15.8806C48.7274 13.9261 46.0766 12.8281 43.3125 12.8281V12.8281ZM43.3125 30.9531H32.4375C30.1945 30.9531 28.3594 29.0273 28.3594 26.6711C28.3594 24.3148 30.1945 22.389 32.4375 22.389C32.9427 22.3925 33.4425 22.4925 33.9102 22.6836C34.0948 22.7629 34.2953 22.7981 34.4959 22.7863C34.6965 22.7745 34.8916 22.716 35.0656 22.6156C35.2416 22.5248 35.3957 22.3967 35.517 22.2401C35.6383 22.0836 35.724 21.9025 35.768 21.7094C36.0595 20.2811 36.7503 18.965 37.7601 17.9137C38.7699 16.8625 40.0572 16.1193 41.4726 15.7706C42.8879 15.4218 44.3731 15.4818 45.7557 15.9436C47.1383 16.4054 48.3615 17.25 49.2832 18.3792C50.2049 19.5085 50.7873 20.8762 50.9626 22.3232C51.138 23.7703 50.8992 25.2375 50.2739 26.5542C49.6487 27.871 48.6626 28.9833 47.4304 29.762C46.1981 30.5406 44.7702 30.9537 43.3125 30.9531ZM2.98438 23.25V26.875C2.98438 27.2355 2.84116 27.5813 2.58622 27.8362C2.33129 28.0911 1.98553 28.2344 1.625 28.2344C1.26447 28.2344 0.918709 28.0911 0.663777 27.8362C0.408844 27.5813 0.265625 27.2355 0.265625 26.875V23.25C0.267202 18.7078 1.60728 14.2669 4.11841 10.482C6.62954 6.69709 10.2004 3.73614 14.3847 1.96909C18.569 0.20205 23.1813 -0.292722 27.6453 0.5466C32.1092 1.38592 36.2268 3.52212 39.4836 6.68826C39.6118 6.81306 39.7141 6.96194 39.7847 7.12636C39.8553 7.29079 39.8927 7.46753 39.8948 7.64645C39.8969 7.82537 39.8637 8.00294 39.797 8.16898C39.7303 8.33502 39.6315 8.48627 39.5062 8.61405C39.2513 8.86761 38.9075 9.01182 38.548 9.01605C38.1884 9.02028 37.8413 8.8842 37.5805 8.6367C33.7924 4.9131 28.6867 2.83664 23.375 2.85936C17.9689 2.86535 12.786 5.01557 8.96327 8.83826C5.14059 12.6609 2.99037 17.8439 2.98438 23.25V23.25ZM23.375 10.1094C19.8899 10.1094 16.5475 11.4938 14.0832 13.9582C11.6188 16.4225 10.2344 19.7649 10.2344 23.25V26.875C10.2344 27.2355 10.0912 27.5813 9.83622 27.8362C9.58129 28.0911 9.23553 28.2344 8.875 28.2344C8.51447 28.2344 8.16871 28.0911 7.91378 27.8362C7.65884 27.5813 7.51563 27.2355 7.51562 26.875V23.25C7.52162 19.0457 9.19444 15.0152 12.1673 12.0423C15.1403 9.06942 19.1707 7.3966 23.375 7.39061C26.7513 7.384 30.04 8.46436 32.7547 10.4719C32.9017 10.5753 33.0264 10.7073 33.1213 10.8601C33.2161 11.0128 33.2792 11.1831 33.3067 11.3608C33.3342 11.5385 33.3255 11.7199 33.2813 11.8941C33.2371 12.0684 33.1581 12.2319 33.0492 12.375C32.9421 12.5178 32.8079 12.6381 32.6543 12.7291C32.5007 12.82 32.3307 12.8798 32.154 12.9051C31.9772 12.9303 31.7973 12.9205 31.6243 12.8762C31.4514 12.8319 31.2889 12.754 31.1461 12.6469C28.8936 10.992 26.17 10.1027 23.375 10.1094V10.1094ZM24.7344 17.5179C24.2897 17.408 23.833 17.3548 23.375 17.3594C21.8145 17.3653 20.3197 17.9879 19.2163 19.0913C18.1129 20.1947 17.4903 21.6895 17.4844 23.25V26.875C17.4844 27.2355 17.3412 27.5813 17.0862 27.8362C16.8313 28.0911 16.4855 28.2344 16.125 28.2344C15.7645 28.2344 15.4187 28.0911 15.1638 27.8362C14.9088 27.5813 14.7656 27.2355 14.7656 26.875V23.25C14.7656 20.9666 15.6727 18.7768 17.2873 17.1622C18.9018 15.5477 21.0917 14.6406 23.375 14.6406C24.0462 14.6362 24.7156 14.7123 25.3688 14.8672C25.7191 14.9584 26.0206 15.1813 26.2106 15.4894C26.4005 15.7976 26.4642 16.1671 26.3883 16.5211C26.3459 16.6955 26.2693 16.8599 26.163 17.0046C26.0568 17.1493 25.9229 17.2716 25.7691 17.3642C25.6153 17.4569 25.4447 17.5182 25.2671 17.5446C25.0895 17.571 24.9085 17.5619 24.7344 17.5179V17.5179Z" fill="#353331"/>
</svg>
