<svg width="58" height="58" viewBox="0 0 58 58" fill="none" xmlns="http://www.w3.org/2000/svg">
<path d="M45.3125 25.8281C43.1603 25.8354 41.0624 26.5045 39.3034 27.7447C37.5444 28.9849 36.2095 30.7362 35.4797 32.7609C35.1362 32.6961 34.787 32.6658 34.4375 32.6703C30.6992 32.6703 27.6406 35.8195 27.6406 39.6711C27.6406 43.5226 30.6992 46.6719 34.4375 46.6719H45.3125C48.0766 46.6719 50.7274 45.5738 52.6819 43.6194C54.6364 41.6649 55.7344 39.014 55.7344 36.25C55.7344 33.4859 54.6364 30.8351 52.6819 28.8806C50.7274 26.9261 48.0766 25.8281 45.3125 25.8281V25.8281ZM45.3125 43.9531H34.4375C32.1945 43.9531 30.3594 42.0273 30.3594 39.6711C30.3594 37.3148 32.1945 35.389 34.4375 35.389C34.9427 35.3925 35.4425 35.4925 35.9102 35.6836C36.0948 35.7629 36.2953 35.7981 36.4959 35.7863C36.6965 35.7745 36.8916 35.716 37.0656 35.6156C37.2416 35.5248 37.3957 35.3967 37.517 35.2401C37.6383 35.0836 37.724 34.9025 37.768 34.7094C38.0595 33.2811 38.7503 31.965 39.7601 30.9137C40.7699 29.8625 42.0572 29.1193 43.4726 28.7706C44.8879 28.4218 46.3731 28.4818 47.7557 28.9436C49.1383 29.4054 50.3615 30.25 51.2832 31.3792C52.2049 32.5085 52.7873 33.8762 52.9626 35.3232C53.138 36.7703 52.8992 38.2375 52.2739 39.5542C51.6487 40.871 50.6626 41.9833 49.4304 42.762C48.1981 43.5406 46.7702 43.9537 45.3125 43.9531ZM4.98438 36.25V39.875C4.98438 40.2355 4.84116 40.5813 4.58622 40.8362C4.33129 41.0911 3.98553 41.2344 3.625 41.2344C3.26447 41.2344 2.91871 41.0911 2.66378 40.8362C2.40884 40.5813 2.26562 40.2355 2.26562 39.875V36.25C2.2672 31.7078 3.60728 27.2669 6.11841 23.482C8.62954 19.6971 12.2004 16.7361 16.3847 14.9691C20.569 13.2021 25.1813 12.7073 29.6453 13.5466C34.1092 14.3859 38.2268 16.5221 41.4836 19.6883C41.6118 19.8131 41.7141 19.9619 41.7847 20.1264C41.8553 20.2908 41.8927 20.4675 41.8948 20.6464C41.8969 20.8254 41.8637 21.0029 41.797 21.169C41.7303 21.335 41.6315 21.4863 41.5062 21.614C41.2513 21.8676 40.9075 22.0118 40.548 22.0161C40.1884 22.0203 39.8413 21.8842 39.5805 21.6367C35.7924 17.9131 30.6867 15.8366 25.375 15.8594C19.9689 15.8654 14.786 18.0156 10.9633 21.8383C7.14059 25.6609 4.99037 30.8439 4.98438 36.25V36.25ZM25.375 23.1094C21.8899 23.1094 18.5475 24.4938 16.0832 26.9582C13.6188 29.4225 12.2344 32.7649 12.2344 36.25V39.875C12.2344 40.2355 12.0912 40.5813 11.8362 40.8362C11.5813 41.0911 11.2355 41.2344 10.875 41.2344C10.5145 41.2344 10.1687 41.0911 9.91378 40.8362C9.65884 40.5813 9.51563 40.2355 9.51562 39.875V36.25C9.52162 32.0457 11.1944 28.0152 14.1673 25.0423C17.1403 22.0694 21.1707 20.3966 25.375 20.3906C28.7513 20.384 32.04 21.4644 34.7547 23.4719C34.9017 23.5753 35.0264 23.7073 35.1213 23.8601C35.2161 24.0128 35.2792 24.1831 35.3067 24.3608C35.3342 24.5385 35.3255 24.7199 35.2813 24.8941C35.2371 25.0684 35.1581 25.2319 35.0492 25.375C34.9421 25.5178 34.8079 25.6381 34.6543 25.7291C34.5007 25.82 34.3307 25.8798 34.154 25.9051C33.9772 25.9303 33.7973 25.9205 33.6243 25.8762C33.4514 25.8319 33.2889 25.754 33.1461 25.6469C30.8936 23.992 28.17 23.1027 25.375 23.1094V23.1094ZM26.7344 30.5179C26.2897 30.408 25.833 30.3548 25.375 30.3594C23.8145 30.3653 22.3197 30.9879 21.2163 32.0913C20.1129 33.1947 19.4903 34.6895 19.4844 36.25V39.875C19.4844 40.2355 19.3412 40.5813 19.0862 40.8362C18.8313 41.0911 18.4855 41.2344 18.125 41.2344C17.7645 41.2344 17.4187 41.0911 17.1638 40.8362C16.9088 40.5813 16.7656 40.2355 16.7656 39.875V36.25C16.7656 33.9666 17.6727 31.7768 19.2873 30.1622C20.9018 28.5477 23.0917 27.6406 25.375 27.6406C26.0462 27.6362 26.7156 27.7123 27.3688 27.8672C27.7191 27.9584 28.0206 28.1813 28.2106 28.4894C28.4005 28.7976 28.4642 29.1671 28.3883 29.5211C28.3459 29.6955 28.2693 29.8599 28.163 30.0046C28.0568 30.1493 27.9229 30.2716 27.7691 30.3642C27.6153 30.4569 27.4447 30.5182 27.2671 30.5446C27.0895 30.571 26.9085 30.5619 26.7344 30.5179V30.5179Z" fill="#353331"/>
</svg>
