<?xml version="1.0" encoding="UTF-8"?><svg id="a" xmlns="http://www.w3.org/2000/svg" viewBox="0 0 266.42 254.17"><defs><style>.b{fill:#f2efeb;}</style></defs><path class="b" d="M266.42,182.45c-.16,1.38-.37,2.75-.47,4.13-.16,2.24-.54,4.39-1.34,6.52-.69,1.83-1.23,3.9-1.07,5.8,.11,1.36-.21,2.44-.53,3.62-.08,.29-.26,.6-.48,.81-1.4,1.26-1.41,1.25,.65,2-.5,.34-.94,.53-1.21,.84-1.4,1.62-2.76,3.28-4.12,4.93-.13,.15-.17,.44-.31,.5-1.55,.57-1.72,2.17-2.55,3.27-.72,.95-1.73,1.68-2.62,2.51-.64,.59-1.33,1.14-1.91,1.78-.76,.84-1.43,1.75-2.16,2.66l1.08,.57c-.41,.19-.71,.35-1.03,.47-1.27,.47-2.44,1.04-3.49,1.98-.79,.7-1.97,.98-2.99,1.42-.95,.41-1.92,.76-2.87,1.17-.24,.1-.61,.3-.62,.48-.12,1.33-1.07,1.1-1.93,1.13-2.06,.08-4.06,.37-5.66,1.88-.14,.13-.32,.25-.5,.32-1.85,.77-3.71,1.54-5.57,2.28-1.07,.42-2.25,.63-3.25,1.18-3.61,1.99-7.65,2.7-11.48,4.02-7.56,2.6-15.24,4.7-23.04,6.44-1.82,.41-3.59,1.04-5.35,1.66-.6,.22-1.08,.76-1.63,1.12-.39,.25-.8,.54-1.25,.64-1.75,.39-3.51,.71-5.27,1.05-.31,.06-.65,.14-.94,.06-3.16-.9-6.13,.44-9.19,.7-1.51,1.38-3.3,.19-4.92,.51-3.05,.61-6.09,1.26-9.14,1.89-.55,.11-1.1,.24-1.65,.25-2.92,.02-5.81,.27-8.64,1.07-.22,.06-.51,.09-.71,.01-2.89-1.12-5.92-.57-8.89-.74-6.61-.39-13.24-.49-19.65-2.47-1.22-.37-2.47-.61-3.71-.93-1.58-.4-3.16-.81-4.74-1.21-3.02-.76-5.67-2.3-8.22-4.02-1.65-1.11-3.2-2.57-5.03-3.16-1.32-.43-2.34-.7-2.87-2.02-.05-.12-.24-.2-.38-.28-3.36-1.83-6.08-4.37-8.33-7.44-.28-.38-.71-.63-1.04-.97-.7-.7-1.57-1.32-2.04-2.15-2.76-4.88-5.95-9.58-7.14-15.2-.08-.37-.25-.91-.52-1.02-1.37-.55-.94-1.58-.87-2.6,.05-.79-.11-1.6-.22-2.4-.06-.43-.22-.84-.31-1.27-.31-1.51-.6-3.02-.9-4.53-.19-.98-.33-1.96-.56-2.93-.19-.84-.46-1.66-.71-2.49-.07-.23-.24-.44-.25-.66-.02-1.8-.02-3.61-.02-5.41,0-1.16,.04-2.31,.04-3.47,0-.17-.09-.41-.22-.5-.99-.68-.98-1.43-.27-2.33,.17-.22,.21-.59,.21-.89,.03-.95,0-1.9,0-2.94l-1.48-.17c2.01-1.94,1.58-4.18,1.24-6.42-.03-.22,0-.51,.12-.7,1.82-2.79,1.4-6.21,2.56-9.19,.38-.97,.28-1.96-1.08-2.06,.71-.76,1.43-1.49,2.11-2.26,.9-1.02,.15-1.94-.11-2.5,.74-1.05,1.74-1.86,1.86-2.79,.23-1.69,.86-3.15,1.68-4.55,4.12-7.01,7.04-14.57,10.11-22.06,.88-2.15,1.23-4.51,.85-6.93-.16-1.01,.04-2.18,.4-3.16,1.11-2.97,0-5.34-1.95-7.4-2.05-2.17-4.12-4.42-6.55-6.11-1.36-.95-2.48-2.09-3.72-3.13-.09-.07-.19-.16-.24-.26-2.11-4.25-4.9-8.25-5.9-12.92-.62-2.91-.3-6.03-.29-9.05,.01-4.23,1.66-8.14,2.95-12.03,1.16-3.5,4.12-5.72,8-6.22,.91-.12,1.84-.11,2.75-.09,2.52,.04,4.55,1.08,6.06,3.1,.43,.57,.77,1.23,1.25,1.75,1.28,1.4,2.6,2.77,3.94,4.12,.2,.2,.65,.38,.85,.29,1.11-.52,1.75,.24,2.38,.86,1.39,1.36,3.09,1.69,4.94,1.75,2.15,.07,4.29,.25,6.44,.33,.7,.03,1.4-.12,2.1-.37,2.11,1.88,4.37,.56,6.58,.14,.84-.16,.71-.92,.51-1.47-.54-1.5-1.14-2.97-1.75-4.45-.17-.4-.46-.75-.62-1.16-1.97-4.82-3.92-9.65-5.89-14.46-.62-1.51-1.27-3-1.92-4.49-.27-.62-.67-1.19-.9-1.82-2.07-5.65-4.1-11.31-6.17-16.95-.47-1.27-1.06-2.49-1.55-3.76-.25-.66-.66-.79-1.3-.71-1.94,.27-3.88,.47-5.82,.73-2.16,.29-3.65-.64-4.03-2.75-.48-2.61-.88-5.25,1.03-7.55,.1-.12,.18-.28,.19-.43,.16-2.43,1.56-4.22,3.05-5.96,1.53-1.79,3.06-3.58,4.6-5.37,1.2-1.39,2.68-1.84,4.42-1.24,2.3,.78,4.65,.98,7.07,1.06,1.07,.03,2.33,.7,3.12,1.47,1.1,1.07,1.88,2.54,1.69,4.18-.14,1.22,.35,2.01,1.25,2.63,2.24,1.54,2.23,3.99,2.54,6.29,.04,.33-.49,.86-.89,1.1-1.32,.8-2.7,1.51-4.15,2.29-1.95-1.16-2.65-3.01-2-5.3,.38-1.35-.07-2.18-.99-3.15-.96-1.02-1.58-2.36-2.3-3.6-.12-.22-.03-.63,.08-.9,.37-.93,0-1.45-.9-1.46-1.99,0-4,.02-5.98,.21-1.21,.11-2.05,.92-2.24,2.17-.21,1.39-.82,2.49-2,3.25-.83,.53-1.12,1.3-1.04,2.25,.03,.4,.02,.8,0,1.2-.04,1.2,.47,2.61-1.41,3.11l.19,.36c1.37,0,2.75,.02,4.12,0,1.37-.03,2.43,.54,3.09,1.7,.91,1.58,1.73,3.21,2.55,4.83,.34,.67,.53,1.42,.89,2.09,2.72,5.1,5.52,10.17,8.17,15.3,.77,1.49,1.09,3.21,1.73,4.78,.32,.79,.91,1.47,1.37,2.21,.36,.57,.72,1.14,1.07,1.72,.64,1.04,1.28,2.09,1.91,3.14,.14,.24,.32,.47,.42,.72,1.08,2.8,2.11,5.62,3.22,8.42,.42,1.07,1.03,2.07,1.49,3.13,1.05,2.41,2.14,4.81,3.02,7.28,.19,.54-.3,1.49-.74,2.06-.66,.87-1.5,1.62-2.36,2.3-.41,.32-1.02,.4-1.55,.55-.96,.27-2.17,.24-2.84,.82-1.86,1.61-4.05,.66-6.03,1.12-.92,.21-1.85,.4-2.74,.71-.78,.27-1.44,.42-2.29,.08-.59-.24-1.38,0-2.08,.02-1.3,.04-2.59,.08-3.89,.1-.39,0-.79-.05-1.17-.15-.48-.13-.94-.33-1.4-.5-.79-.3-1.57-.82-2.38-.87-1.74-.1-3.31-.57-4.95-1.13-1.98-.67-2.62-1.94-3.35-3.68-1.01-2.42-1.83-5.03-3.93-6.89-1.42-1.26-2.4-1.4-3.75-.12-1.18,1.12-2.33,2.3-3.3,3.6-1.16,1.54-1.45,3.36-1.44,5.32,.03,3.68,.03,7.33,.97,10.93,.46,1.77,1.09,3.42,2.43,4.72,.23,.22,.46,.49,.55,.77,1.06,3.21,3.63,5.22,6.01,7.3,2.6,2.27,4.82,4.75,6.25,7.92,.28,.61,.62,1.27,1.12,1.69,1.08,.9,.97,2.02,1.02,3.23,.08,2.11,.37,4.2,.64,6.3,.05,.36,.43,.67,.73,1.12-.18,.4-.35,.93-.65,1.4-.47,.75-.9,1.41-.03,2.2,.17,.16,.05,.74-.06,1.09-1.25,3.95-2.69,7.8-4.59,11.53-2,3.93-3.34,8.19-5.09,12.25-1.34,3.11-2.43,6.27-3.16,9.6-.46,2.12-1.57,4.08-2.27,6.16-.27,.79-.2,1.7-.3,2.55-.08,.67-.19,1.33-.29,2-.6,3.93-1.23,7.86-1.77,11.8-.06,.47,.39,.99,.52,1.51,.08,.31,.06,.69-.03,1-.39,1.32-.71,2.62,0,3.95,.09,.16,.06,.39,.05,.59-.21,4.74,.95,9.34,1.43,14.01,.39,3.79,1.07,7.61,2.19,11.24,1.59,5.14,3.51,10.18,7.93,13.81,1.64,1.35,2.9,3.18,4.3,4.82,.78,.92,1.45,1.98,2.41,1.69,1.52,1.07,2.67,2.02,3.95,2.75,1.75,1,3.61,1.81,5.41,2.74,4.98,2.57,10.09,4.84,15.67,5.74,6.39,1.03,12.82,1.66,19.33,1.16,3.37-.26,6.79,0,10.16-.26,3.65-.28,7.29-.72,10.89-1.36,6.83-1.21,13.64-2.59,20.44-3.94,.54-.11,1.01-.58,1.42-1.08,4.92,.48,9.34-1.96,14-3.01,3.2-.73,6.37-1.94,9.6-2.76,.77-.2,1.57-.3,2.36-.39,1.97-.21,3.78-.83,5.54-1.76,1.24-.66,2.68-.91,4.02-1.39,.71-.25,1.41-.55,2.09-.88,1.87-.9,3.7-1.87,5.59-2.73,3.15-1.44,6.31-2.86,9.51-4.2,.92-.38,2.08-.28,2.34-1.61,.02-.11,.25-.19,.39-.25,2.24-.94,4.44-1.98,6.73-2.77,1.79-.62,3.36-1.49,4.52-2.99,1.07-1.39,2.07-2.83,3.13-4.23,.42-.56,.92-1.06,1.25-1.45,.26-.6,.34-1.19,.68-1.48,.88-.75,1.41-1.55,1.72-2.73,.29-1.09,1.27-1.99,1.9-3,.39-.62,.72-1.29,1.06-1.95,.7-1.34,1.52-2.63,2.06-4.03,.45-1.16,.53-2.45,.85-3.66,.21-.79,.56-1.55,.85-2.32,.23-.6,.47-1.19,.77-1.93l-1.57-.1c.44-.97,.89-1.79,1.17-2.66,.28-.89,.43-1.83,.56-2.76,.07-.5-.18-1.09-.02-1.54,.67-1.88,.58-3.81,.56-5.74,0-.31-.09-.62-.16-.93-.47-2.34-.91-4.68-1.43-7.01-.14-.63-.57-1.18-.78-1.8-.23-.68-.4-1.39-.52-2.09-.12-.71-.01-1.48-.23-2.15-.73-2.3-1.48-4.6-2.41-6.82-.32-.77-1.19-1.3-1.8-1.95-.52-.56-1.02-1.13-1.53-1.7-.18-.19-.34-.44-.57-.55-1.21-.56-1.95-1.46-2.28-2.76-.08-.32-.36-.58-.76-1.19-.44,3.17-2.75,3.57-4.96,3.91-1.4,.21-2.86,.01-4.28,.05-.44,.01-.88,.2-1.33,.31l-.03,.42c-1.46-.75-2.91-1.5-4.61-2.37-.52,.27-1.19,0-2-.58-.69-.5-1.73-.49-2.6-.76-.63-.2-1.28-.42-1.84-.77-1.19-.76-2.21-1.81-3.86-1.59-.41,.05-.99-.59-1.36-1.02-.72-.84-1.38-1.63-2.68-1.42-.35,.06-.78-.32-1.17-.5-1.25-.58-2.46-1.3-3.77-1.71-2.58-.81-5.21-1.46-7.82-2.17-.23-.06-.47-.13-.71-.13-2.84,.03-5.67,.02-8.51,.13-1.45,.05-2.87,.26-4.07-.93,.49-2.35,2.41-3.1,4.38-3.39,3.47-.51,6.97-.9,10.47-1.01,1.65-.05,3.33,.63,4.98,1.05,1.93,.49,3.84,1.04,5.75,1.6,4.92,1.45,9.33,4.01,13.84,6.37,1.26,.66,2.7,.96,4.07,1.41,1.25,.41,2.51,.79,3.77,1.18,1.81,.56,3.6,.72,5.32-.31-.54-.89-1.1-1.83-1.69-2.76-.12-.19-.32-.33-.5-.48-.75-.62-1.49-1.25-2.25-1.84-.51-.4-1.08-.73-1.61-1.1-.45-.31-.88-.64-1.42-1.03l-1.1,1.86c-.24-1.19-.46-2.13-.6-3.09-.16-1.08-.59-1.86-1.74-2.16-1.01-.26-1.58-1.02-2.17-1.9-.87-1.3-2.08-2.38-3.2-3.61l-1.03,.78c-1.11-1.27-2.17-2.61-3.36-3.82-.86-.88-1.88-1.6-2.84-2.38-.68-.55-1.51-.98-2.06-1.64-1.91-2.3-4.47-3.55-7.1-4.74-2.58-1.16-5.15-2.3-7.43-4.07-1.81-1.41-3.92-2.43-5.82-3.74-.86-.59-1.51-1.47-2.3-2.25,1.25-1.21,2.55-1.41,3.91-.96,6.07,1.97,12.29,3.57,17.98,6.58,3.25,1.72,6.36,3.62,9.16,6.06,2.88,2.51,5.84,4.97,9.53,6.31,.63,.23,1.03,1.07,1.54,1.62,.35,.37,.69,.75,1.07,1.09,1.29,1.13,2.6,2.23,3.9,3.34,.18,.15,.39,.45,.55,.43,1.51-.22,1.88,1.1,2.63,1.9,2.85,3.06,5.71,6.11,8.64,9.24,.42-.47,.67-.75,1.01-1.14,.46,1,.84,1.96,1.33,2.84,.68,1.21,1.42,2.39,2.2,3.54,.53,.8,1.22,1.4,2.52,.73-.74,2.3,.5,3.75,1.51,5.41,1.25,2.06,2.11,4.35,3.12,6.55,.16,.36,.23,.76,.29,1.15,.19,1.22,.15,2.38,.72,3.66,.75,1.72,.52,3.9,.56,5.88,.02,1.15-.32,2.29-.37,3.45-.03,.61,.22,1.23,.33,1.84,.06,.38,.09,.76,.11,1.14,.11,1.92,.22,3.84,.32,5.76v.48Z"/><path class="b" d="M163.98,73.92c.53,.81,1.08,1.54,1.53,2.34,.86,1.53,1.26,3.3,.46,4.82-.67,1.27-1.9,2.33-3.07,3.23-2.2,1.7-4.87,2.36-7.47,3.27-2.49,.87-4.42-.14-6.65-.59l.2,.91c-.14,0-.26,.02-.36,0-.19-.05-.38-.12-.56-.21-1.25-.61-2.22-.63-3.7,.07-2.43,1.15-5.23,1.72-7.94,2.02-3.43,.38-6.92,.36-10.39,.31-1.34-.02-2.67-.6-4.18-.97,2.98-2.51,6.26-3.19,9.66-3.51,3.49-.34,6.97-.73,10.51-1.11-.04-.14-.04-.32-.12-.42-1.89-2.39-3.94-4.68-5.66-7.19-2.36-3.44-4.47-7.05-6.72-10.57-.3-.46-.86-.74-1.22-1.18-.42-.52-.78-1.1-1.11-1.69-.33-.59-.59-1.23-.9-1.83-.09-.17-.31-.28-.37-.45-1.05-2.87-3.14-5.16-4.37-7.95-1.22-2.77-2.77-5.39-4.24-8.04-1.49-2.69-3.03-5.35-4.58-8-1.54-2.62-3.18-5.17-4.66-7.82-1.42-2.54-2.74-5.13-4-7.76-.2-.42-.01-1.38,.33-1.62,.78-.54,1.78-.59,2.5,.23,.71,.81,1.34,1.69,1.95,2.58,4.1,6,8.19,12.01,12.28,18.02,1.73,2.54,3.43,5.09,5.16,7.63,.22,.33,.47,.68,.79,.89,2.44,1.6,3.67,3.97,4.55,6.66,.31,.94,1.1,1.73,1.66,2.59,.99,1.53,1.96,3.08,2.94,4.61,1.69,2.66,3.36,5.33,5.08,7.97,.23,.35,.65,.58,1,.84,.95,.68,1.43,1.53,1.29,2.76-.22,1.95,2.06,4.36,4,4.39,.7,.01,1.39,.29,2.09,.37,.5,.06,1.12,.87,1.54-.21,.03-.08,1.14,.1,1.61,.39,.8,.49,1.51,.49,2.38,.19,1.2-.42,2.45-.72,3.69-.98,1.04-.22,1.59-.62,1.18-1.8-.32-.9-.46-1.86-.74-2.77-.97-3.1,.38-5.98,3.39-7.21,.44-.18,.88-.38,1.29-.62,1.98-1.15,3.98-1.39,6.19-.51,1.08,.43,2.34,.51,3.52,.57,2.82,.15,5,1.48,6.89,3.44,1.25,1.29,2.45,2.63,3.74,3.89,.5,.49,1.17,.78,1.71,1.23,.29,.24,.47,.62,.66,.97,.33,.59,.6,1.21,.93,1.81,.4,.72,.97,1.37,1.23,2.13,1.16,3.43,2.24,6.88,3.33,10.34,.19,.6,.24,1.25,.41,1.86,.16,.54,.4,1.06,.62,1.58,.07,.18,.27,.36,.25,.52-.46,2.71,1.21,4.96,1.61,7.49,.23,1.5-.4,2.47-1.39,3.33-.24,.21-.8,.3-1.08,.17-1.35-.64-2.66-1.38-3.98-2.09-.1-.05-.18-.23-.26-.23-.65,.05-1.2,.06-1.58-.67-1.14-2.12-2.84-3.95-2.95-6.57-.11-2.46-.43-4.91-.67-7.36-.03-.27-.08-.71-.24-.77-1.14-.45-.86-1.48-1.04-2.33-.07-.31-.12-.63-.24-.92-.57-1.3-1.23-2.55-1.73-3.88-1.35-3.62-4.12-5.88-7.29-7.77-.32-.19-.76-.18-1.13-.3-.33-.1-.78-.15-.93-.39-.65-.97-1.48-.97-2.42-.62-1.54,.58-3.26,.88-4.18,2.49Z"/><path class="b" d="M244.03,204.52c.62,2.05,.21,3.24-1.41,4.29-2.81,1.82-5.63,3.56-8.76,4.88-3.36,1.42-6.48,3.41-9.75,5.08-3.47,1.77-7.12,2.99-11,3.52-.87,.12-2.24-.1-2.19,1.64-1.66,0-3.29-.08-4.91,.03-.96,.07-1.9,.44-2.84,.69-1.93,.52-3.85,1.07-5.78,1.59-.38,.1-.8,.05-1.19,.14-4.14,.96-8.26,1.95-12.4,2.9-1.2,.27-2.44,.39-3.65,.64-1.35,.29-2.68,.7-4.04,.98-1.6,.34-3.23,.51-4.81,.91-1.28,.32-2.51,.87-3.76,1.32-.3,.11-.57,.31-.88,.37-1.87,.38-3.74,.77-5.62,1.07-1.21,.19-2.45,.27-3.68,.35-.82,.05-1.64,0-2.74,0l-.58,1.52c-.78-1.73-2.1-1.41-3.54-1.34-2.54,.12-5.1-.06-7.65-.19-2.11-.11-4.21-.41-6.29,.24-.47,.15-1.06,.13-1.54,0-3.86-1.01-7.77-.24-11.65-.37-2.02-.07-4.05-.19-6.06-.46-3.44-.46-6.85-1.06-10.28-1.59-.31-.05-.64-.11-.93-.04-1.25,.3-2.32-.07-3.43-.65-1.32-.7-2.74-1.2-4.12-1.79-.26-.11-.62-.14-.75-.33-.81-1.24-2.29-1.36-3.37-2.13-.95-.68-1.81-1.48-2.72-2.22-.34-.28-.68-.56-1.06-.77-4.8-2.72-8.25-6.77-11.07-11.38-.67-1.08-.86-2.45-1.31-3.79l1.52-.57c3.02,5.42,7.12,9.58,12.44,12.56,.56,.31,1.1,.66,1.6,1.05,3.43,2.69,7.51,3.95,11.63,4.68,4.94,.86,9.98,1.21,14.99,1.51,3.61,.21,7.28,.26,10.87-.13,4.69-.51,9.37,0,14.04-.4,1.07-.09,2.12-.25,3.19-.36,.47-.05,.99-.2,1.42-.07,2.5,.77,4.94,.33,7.43-.09,4.52-.78,9.1-1.26,13.58-2.21,3.88-.83,7.64-2.18,11.48-3.22,1.69-.46,3.44-.7,5.16-1.04,.55-.11,1.13-.14,1.63-.36,3.97-1.69,8.21-1.96,12.4-2.53,5.1-.68,10.15-1.48,14.91-3.71,2.2-1.03,4.58-1.85,7.13-1.86,.65,0,1.3-.52,1.93-.82,.88-.42,1.72-.95,2.63-1.29,1.79-.67,3.59-1.32,5.43-1.83,2.56-.72,4.93-1.77,7.2-3.15,.94-.57,2.05-.84,3.14-1.26Z"/><path class="b" d="M110.08,87.99c3.31-.43,4.82,1.37,5.81,4.04,.83,2.24,1.93,4.38,2.75,6.62,.36,.98,.43,2.1,.45,3.16,.07,3.46-.68,6.81-1.48,10.14-.65,2.71-.77,5.43-.48,8.2,.1,.93-.06,1.91-.19,2.85-.39,2.7-.14,5.34,.72,7.91,.17,.52,.66,.92,.93,1.42,.17,.32,.28,.72,.25,1.08-.17,2.12,1.12,3.57,2.26,5.09,2.87,.36,4.46,3.75,7.73,3.24,.49-.08,1.05,.32,1.58,.51,.34,.12,.66,.37,1,.38,1.75,.07,3.51,.07,5.26,.11,.86,.02,1.27-.47,1.59-1.19,.3-.68,.71-1.31,1.1-2.01,1.86,.98,2.81,2.5,3.54,4.23,1.04,2.46,2.06,4.93,3.17,7.36,1.32,2.88,2.16,3.33,5.26,2.68,5.15-1.08,10.29-2.22,15.42-3.38,4.78-1.08,9.53-2.29,14.32-3.28,1.74-.36,3.57-.26,5.36-.4,.39-.03,.78-.17,1.17-.23,.86-.14,.97-.77,.62-1.33-.77-1.21-1.63-2.36-2.55-3.47-.21-.25-.79-.19-1.21-.27-1.03-.2-2.09-.33-3.1-.62-.72-.21-1.36-.65-2.05-.97-1.86-.88-2.14-2.68-2.45-4.39-.16-.88,.04-1.83,.15-2.74,.03-.22,.34-.55,.56-.59,1.3-.22,2.47,.02,3.25,1.23,.33,.5,.71,.97,1.01,1.48,1.28,2.19,3.32,2.48,5.58,2.36,.32-.02,.76,.17,.98,.42,2.7,3.01,4.31,6.6,5.28,10.48,.39,1.59-.83,3.43-2.39,3.78-4.78,1.09-9.57,2.16-14.35,3.21-.66,.14-1.34,.21-2.01,.24-1.31,.06-2.62-.03-3.75,.87-.32,.25-.82,.3-1.25,.37-5.03,.77-10.05,1.67-15.11,2.21-2.67,.28-5.42,0-8.13-.18-1.33-.09-2.41-.87-2.98-2.13-.92-2.03-1.84-4.07-2.66-6.14-.32-.79-.69-1.16-1.57-1.06-1.74,.21-3.49,.37-5.23,.51-.75,.06-1.52,.09-2.26-.02-2.17-.33-4.36-.62-6.47-1.17-1.35-.35-2.59-1.13-3.88-1.72-.85-.39-1.71-.79-2.55-1.2-.28-.13-.61-.23-.82-.45-1.25-1.31-2.53-2.54-3.66-4-1.27-1.65-1.91-3.32-2.36-5.22-.03-.12-.05-.29-.13-.33-1.64-.69-1.06-2.27-1.43-3.47-.35-1.17-.8-2.31-1.17-3.48-.16-.51-.3-1.06-.27-1.58,.06-1.14,.23-2.28,.38-3.42,.23-1.77,.5-3.54,.69-5.31,.18-1.66,.26-3.33,.41-5,.44-4.89,.84-9.78,1.35-14.67,.3-2.91-.49-5.61-1.33-8.31-.26-.82-.44-1.67-.64-2.45Z"/><path class="b" d="M203.46,148.53c-1.64,1.52-1.72,1.9-.61,3.51,1.62,2.35,3.75,3.97,6.59,4.68,2.15,.54,4.24,1.33,6.38,1.95,4.55,1.32,9.09,2.67,13.67,3.89,3.36,.89,6.76,1.2,10.29,1.09,3.59-.11,7.2,.63,10.8,1.02,.62,.07,1.1,.31,1.06,1.14-.04,.81-.5,.96-1.13,1.1-5.96,1.31-11.99,1.89-18.08,1.47-3.5-.24-7.03-.45-10.46-1.13-3.21-.63-6.5-1.09-9.51-2.57-1.12-.55-2.49-.56-3.68-1-1.44-.54-2.83-1.25-4.22-1.92-.75-.36-1.6-.66-2.17-1.23-2.05-2.05-4.81-3.66-4.75-7.11,.04-2.8,1.99-5.03,4.75-5.49,.39-.06,.86-.09,1.12-.33,1.71-1.5,3.76-1.62,5.87-1.53,2.43,.1,4.88,.43,7.29,.28,3.23-.19,6.26,.85,9.25,1.56,3.66,.87,7.15,2.68,10.54,4.41,2.57,1.32,4.89,3.14,7.3,4.76,.96,.65,1.34,1.61,1.34,2.78,0,1.5-1.22,2.49-2.6,1.85-1.72-.8-3.34-1.81-5.01-2.71-.38-.2-.78-.41-1.2-.47-.9-.14-1.74-.29-2.04-1.35-.05-.17-.36-.27-.57-.38-.28-.15-.61-.22-.86-.41-4.07-3.14-8.98-4-13.79-5.13-.89-.21-1.77-.5-2.67-.63-1.36-.2-2.74-.29-4.11-.42-.44-.04-.87-.08-1.31-.11-1.58-.11-3.17-.29-4.75-.3-1.12,0-2.18,.05-2.72-1.3Z"/><path class="b" d="M59.08,40.52c1.57,1.93,3.12,3.8,4.62,5.71,.64,.82,.46,1.65-.26,2.36-.74,.73-1.47,.41-2.13-.13-.43-.35-.77-.8-1.27-1.33l-2.15,1.85c1.06,.98,1.95,1.89,2.95,2.67,.29,.23,.93,.2,1.32,.06,.51-.18,.97-.55,1.41-.9,1.48-1.17,2.66-2.43,2.51-4.58-.11-1.48,.84-2.44,2.09-2.62,1.73-.24,3.05,.62,3,2.37-.03,1.14-.43,2.57-1.2,3.33-3.4,3.37-6.98,6.56-10.52,9.78-.47,.43-1.09,.68-1.84,1.13,.2,1.4-.43,2.73-1.67,3.93-.7,.68-1.36,.93-2.23,.75-.78-.16-1.53-.44-2.31-.63-2.02-.5-3.73,.43-5.57,1.03,1.05,1.91,2.43,2.36,4.23,1.79,.58-.18,1.45-.03,1.92,.33,.24,.18,.07,1.27-.23,1.74-1.09,1.66-2.27,3.27-3.55,4.78-.37,.44-1.26,.72-1.83,.61-.39-.07-.97-.99-.89-1.43,.3-1.79-.85-2.86-1.91-3.76-2.18-1.83-4.59-3.38-6.84-5.14-.81-.63-1.45-.69-2.24-.12-.32,.23-.7,.57-1.04,.55-.56-.03-1.42-.16-1.58-.5-.24-.55-.25-1.48,.07-1.95,.97-1.4,2.16-2.66,3.26-3.97,.53-.63,1.16-1.21,1.57-1.91,1.61-2.77,3.38-3.71,6.27-3.14,2.24,.44,4.49,2.14,4.9,5.21,.19,1.42,.47,1.56,1.88,1.34,.9-.14,1.82-.11,2.72-.23,1.33-.17,2.65-.41,3.7-.57,.48-.95,.78-1.75,1.26-2.44,.4-.58,.4-.98-.08-1.45-.48-.47-.95-.96-1.42-1.45-1.05-1.09-2.1-2.16-3.13-3.27-1.03-1.11-2.06-2.23-3.04-3.38-.64-.75-1.27-.87-2.05-.24-.21,.17-.48,.28-.74,.38-.83,.31-1.64,.1-1.95-.65-.2-.49-.07-1.43,.29-1.78,1.22-1.17,2.6-2.17,3.92-3.24,.21-.17,.38-.4,.58-.6,1.02-.98,2.03-1.98,3.08-2.93,.7-.63,1.4-1.32,2.21-1.76,1.53-.84,4.51,.05,5.45,1.52,.44,.69,.42,1.39-.2,1.95-.44,.39-.97,.68-1.34,.93Zm-18.54,17.19c-.32,.03-.69-.03-.94,.11-.52,.29-1.19,.61-1.38,1.08-.13,.31,.39,1.01,.78,1.37,.99,.91,2.05,1.74,3.13,2.54,.19,.14,.78,.1,.86-.03,.5-.94,1.45-1.77,.81-3.04-.57-1.12-2.11-2.11-3.25-2.04Zm15.14-11.45c1.6-1.61,1.51-1.59,1.25-3.39-.12-.83,.17-1.72,.28-2.6-1.42-.75-2.59,.1-3.78,1.12-.79,.68-.81,1.33-.22,2.05,.77,.95,1.61,1.84,2.48,2.82Z"/><path class="b" d="M24.2,153.24c-2.11,.22-4.03,.3-5.9,.65-1.62,.3-1.65,.67-1.63,2.3,0,.82-.34,1.7-.73,2.44-.18,.33-.91,.59-1.32,.5-.4-.08-.96-.61-1-.99-.19-1.93-1.43-3.68-.98-5.71,.02-.11,.02-.27-.05-.35-1.32-1.54-.64-3.55-1.24-5.27-.26-.76-.17-1.55,.76-1.88,.95-.34,1.72-.09,2.24,.82,.04,.07,.07,.14,.11,.21,.39,.81,.61,2.09,1.22,2.32,.91,.35,2.11-.01,3.18-.13,1.03-.12,2.05-.29,3.07-.49,1-.19,1.95-.37,2.76-1.21,1.08-1.11,1.8-.8,2.83,.43,2.88,3.45,3.72,7.67,4.14,11.88,.2,2-.75,4.16-1.42,6.17-.39,1.16-1.08,2.33-1.93,3.21-2.74,2.85-6.04,4.55-10.06,5.19-3.7,.59-6.97-.21-10.16-1.77-1.12-.55-2.07-1.47-3.06-2.27-3.08-2.48-4.61-5.7-4.95-9.66-.27-3.06,.23-6.01,.69-8.98,.06-.35,.33-.74,.61-.98,1.15-.97,4.33-1.09,5.61-.27,.9,.58,1.41,1.77,.87,2.71-.58,1.01-1.37,1.95-2.24,2.72-1.02,.91-1.94,1.68-1.6,3.28,.19,.89,.02,1.87-.02,2.81-.06,1.52,1.2,2.16,2.12,2.83,2.5,1.8,5.25,3.1,8.44,3.04,1.7-.03,3.43,.06,5.09-.2,2.21-.35,3.81-1.93,5.43-3.34,.47-.41,.56-1.26,.84-1.89,.32-.72,.59-1.47,1-2.13,.89-1.44,.55-4.47-.82-5.47-.54-.39-1.37-.39-1.91-.53Z"/><path class="b" d="M204.84,20.26c-.03,.27,0,.61-.12,.9-1.42,3.59-2.99,7.1-5.61,10.02-.65,.72-1.33,1.28-2.39,.73-1.06-.56-1.23-1.52-.87-2.46,.95-2.47,.06-3.94-2.2-5.03-1.38-.67-1.75-.75-2.43,.63-1.07,2.17-2.05,4.39-3.1,6.58-.37,.78-.2,1.21,.55,1.63,.86,.49,1.64,1.12,2.41,1.75,.71,.58,.41,1.3,.14,1.97-.3,.76-.77,1.39-1.68,1.22-1.63-.29-3.18-.6-4.58-1.79-1.46-1.24-3.36-1.96-5.06-2.93-.58-.33-1.18-.68-1.66-1.15-.79-.78-.8-1.95-.15-2.71,.66-.77,1.78-.92,2.72-.37,1.72,1,1.65,.95,2.51-.83,1.41-2.91,2.94-5.75,4.42-8.62,.75-1.45,1.45-2.92,2.23-4.35,.84-1.53,1.8-3,2.63-4.54,.8-1.47,.64-1.89-.77-2.72-1.21-.71-1.65-1.59-1.27-2.51,.4-.96,1.81-1.54,3-1.03,1.83,.79,3.59,1.72,5.38,2.6,3.02,1.5,6.06,2.98,9.06,4.54,1.44,.75,2.84,1.6,4.19,2.5,.82,.54,1.28,1.46,.89,2.4-.74,1.79-1.5,3.6-2.52,5.24-.95,1.51-2.45,1.33-3.06-.32-.38-1.01-.41-2.17-.5-3.27-.15-1.79-.82-3.16-2.55-3.95-1.41-.65-2.77-1.42-4.1-2.22-.73-.43-1.31-.39-1.73,.32-1.36,2.3-2.68,4.61-4,6.93-.39,.69-.09,1.1,.59,1.38,.91,.37,1.82,.76,2.69,1.2,.95,.48,1.48,.3,1.93-.69,.57-1.27,1.59-2.08,2.85-2.6,1.34-.55,2.2,.06,2.17,1.56Z"/><path class="b" d="M26.95,180.94c.05-1.17,.25-1.93,1.33-2.1,.27-.04,.53-.18,.78-.3,1.76-.86,2.52-.73,3.5,1.01,1,1.76,1.73,3.68,2.69,5.46,1.24,2.32,2.61,4.56,3.88,6.87,.34,.61,.51,1.32,.75,1.99,.09,.26,.09,.58,.24,.78,2.56,3.46,5.13,6.91,7.7,10.36,.21,.29,.48,.53,.72,.8,.37,.42,.87,.79,1.07,1.28,1.1,2.71,3.48,4.36,5.35,6.4,1.88,2.05,4.07,3.82,6.13,5.7,.26,.24,.56,.45,.81,.71,.81,.85,1.42,1.9,.9,3.02-.54,1.16-1.52,2.05-2.9,2.24-.34,.05-.8,.03-1.03-.17-1.28-1.05-2.57-2.11-3.75-3.27-1.82-1.81-3.47-3.8-5.35-5.55-1.7-1.58-3.14-3.35-4.61-5.13-1.9-2.31-3.57-4.71-5.04-7.31-.88-1.55-2.31-2.79-3.47-4.19-.38-.45-.73-.94-1.03-1.45-.8-1.39-1.61-2.78-2.34-4.22-.75-1.48-1.39-3.02-2.09-4.53-.57-1.22-1.1-2.45-1.74-3.63-.62-1.14-1.4-2.19-2.04-3.33-.28-.51-.38-1.12-.48-1.44Z"/><path class="b" d="M27.05,129.49c2.74,2.46,3.12,6.12,.95,8.63-1.08,1.25-2.53,1.98-4.21,1.94-2.43-.06-4.86-.28-7.3-.33-1.42-.03-2.85,.12-4.27,.24-.26,.02-.46,.43-.73,.51-.73,.21-1.52,.53-2.22,.4-.35-.06-.75-.99-.77-1.54-.04-1.1,.15-2.22,.28-3.32,.13-1.07,.84-1.59,1.84-1.74,.47-.07,.96-.07,1.43-.04,2.54,.14,5.07,.28,7.61,.46,.62,.04,1.22,.33,1.84,.36,.56,.03,1.24,.03,1.67-.25,1.16-.78,1.88-3.02,1.26-4.24-.31-.61-1.13-1.11-1.83-1.34-.92-.31-1.95-.37-2.93-.41-2.06-.08-4.13-.15-6.19-.07-.55,.02-1.08,.58-1.6,.93-.11,.07-.11,.29-.17,.44-.4,.87-.88,1.68-2.03,1.47-.89-.17-1.61-1.5-1.5-2.58,.14-1.31,.25-2.62,.32-3.93,.08-1.31,.8-2.12,2.12-2.03,2.42,.16,4.82,.46,7.24,.66,1.58,.13,3.16,.17,4.74,.29,.95,.07,1.56-.34,2.08-1.11,.88-1.31,2.42-1.31,3.17,.08,.58,1.07,.99,2.27,1.28,3.46,.4,1.57,.09,2.02-1.36,2.7-.21,.1-.41,.21-.7,.37Z"/><path class="b" d="M252.67,89.42c-2.26,.86-4.55,1.75-6.86,2.6-.97,.36-1.83-.05-2.25-.97-.45-.97,.12-1.5,.8-1.99,.5-.35,1.46-.65,1.46-.98,0-.73-.46-1.46-.74-2.23-1.29,.62-2.47,1.12-3.56,1.77-.31,.19-.54,.82-.51,1.22,.06,.7,.34,1.38,.57,2.06,.57,1.67,1.54,2.87,3.37,3.39,1.39,.39,2.01,1.48,1.89,2.67-.19,1.85-1.72,2.91-3.54,2.22-.91-.35-1.96-1.05-2.36-1.87-2.16-4.48-4.14-9.05-6.19-13.59-.37-.83-.34-1.65,.5-2.08,.8-.41,1.64-.24,2.21,.59,.16,.23,.36,.44,.49,.68,.33,.62,.78,.73,1.38,.42,.04-.02,.07-.03,.11-.05,3.31-1.53,6.62-3.08,9.95-4.57,.95-.43,1.19-1.02,.93-1.99-.12-.47-.17-1.11,.06-1.49,.28-.45,.85-.88,1.36-.97,.36-.06,1.04,.36,1.21,.73,.72,1.58,1.29,3.22,1.92,4.85,.04,.11,.02,.27,.09,.34,1.36,1.44,1.64,3.41,2.49,5.09,1.52,3.03,.16,4.94-2.17,6.39-1.02,.63-1.96,.17-2.35-.97-.15-.44-.18-.92-.24-1.25Zm.82-1.71c1.17-1.11,.63-2.52,.02-3.97-.3-.71-.8-1.06-1.49-.82-1.29,.44-2.54,.99-3.79,1.49,.58,1.48,1.22,2.36,2.82,2.31,.76-.02,1.55,.61,2.44,.99Z"/><path class="b" d="M213.27,31.06c1.27,.43,3.29,.93,5.12,1.82,.94,.46,1.58,1.59,2.28,2.48,.72,.92,1.62,1.82,1.96,2.89,.54,1.69,.97,3.47,.14,5.29-1.27,2.79-3.04,5.14-5.71,6.69-1.64,.96-3.36,1.45-5.39,1.47-3.8,.03-6.22-2.02-8.17-4.76-.8-1.12-1.06-2.73-1.23-4.16-.44-3.76,1.18-6.71,3.95-9.13,1.81-1.58,3.86-2.49,7.05-2.58Zm4.5,7.07c.21-1.09-.43-1.63-1.2-2.16-1.34-.91-2.83-.6-3.99-.01-3.14,1.59-5.19,4.08-5.48,7.8-.19,2.36,.99,3.64,3.35,3.33,.63-.08,1.28-.15,1.86-.39,3.81-1.59,4.83-4.98,5.46-8.57Z"/><path class="b" d="M134.62,17.32c0,1.31-.02,2.54,0,3.77,.02,.68,.36,1.1,1.11,1.14,.52,.03,1.03,.18,1.54,.21,1.89,.11,3.66-.06,4.88-1.8,.71-1.02,1.85-1.3,2.86-.82,.73,.34,1.48,1.17,1.69,1.93,.32,1.17-.19,2.34-1.35,2.93-.82,.42-1.76,.82-2.66,.86-3.27,.14-6.54,.12-9.82,.18-1.47,.03-2.95,.08-4.42,.19-.97,.08-1.61-.32-1.76-1.22-.15-.91,.48-1.47,1.28-1.78,.58-.22,1.55-.25,1.69-.62,.29-.73,.15-1.63,.13-2.46-.04-1.94-.11-3.89-.17-5.83-.04-1.23-.13-2.47-.13-3.7,0-.86-.44-1.21-1.2-1.36-.43-.08-1.01-.1-1.22-.37-.4-.51-.81-1.21-.77-1.8,.03-.37,.86-.96,1.35-.97,1.74-.05,3.48,.13,5.22,.15,.58,0,1.16-.37,1.74-.36,2.01,.02,4.04,0,6.03,.26,1.67,.23,3.38,3.02,3.11,4.7-.14,.85-.61,1.4-1.54,1.35-.55-.03-1.09-.13-1.79-.22,0,2.32,.06,4.66-.04,7-.02,.59-.39,1.34-.84,1.69-1.01,.79-2.18,.2-2.38-1.06q-.34-2.19-2.57-1.97Zm4.81-7.09c-.64-1.55-2.15-1.71-3.67-1.56-.48,.05-1.24,.64-1.29,1.05-.17,1.35-.06,2.73-.06,4.01,1.7,.2,2.67-.3,3.25-1.78,.26-.66,1.1-1.1,1.78-1.73Z"/><path class="b" d="M163.02,19.18c.42-2.18,.81-3.96,1.1-5.74,.16-.98-.05-1.81-1.03-2.46-.46-.31-.73-1.18-.72-1.8,0-.25,.95-.63,1.5-.7,2.4-.29,4.6,.69,6.87,1.22,.3,.07,.74,.66,.69,.93-.11,.56-.39,1.21-.81,1.56-.38,.31-1.05,.34-1.59,.34-.98,0-1.49,.52-1.62,1.41-.28,1.99-.43,4-.77,5.98-.35,2.05-.7,4.13-1.36,6.1-.58,1.72-2.49,1.9-3.58,.42-1.11-1.5-2.18-2.99-2.93-4.8-.93-2.24-2.58-4.17-3.99-6.36-1.49,2.15-1.46,4.31-1.17,6.48,.07,.54,.61,1.07,1.04,1.49,.6,.57,1.38,.96,1.94,1.56,.3,.32,.52,1.01,.38,1.37-.15,.37-.78,.76-1.21,.77-2.72,.02-5.39-.38-7.99-1.19-.33-.1-.69-.71-.69-1.09,0-.49,.31-1,.57-1.45,.09-.16,.42-.18,.65-.25,2.14-.71,2.05-.76,2.32-3.12,.28-2.37,.77-4.72,1.3-7.05,.25-1.12-.01-1.93-.79-2.69-.78-.76-1.33-1.66-.95-2.78,.14-.42,.66-1.04,.95-1.01,1.71,.18,3.56-.19,4.66,1.89,1.44,2.72,3.17,5.29,4.84,7.89,.65,1.01,1.47,1.9,2.39,3.09Z"/><path class="b" d="M253,132.9c-.37-3.41-.73-6.82-1.1-10.23-.02-.2-.08-.4-.07-.59,.36-4.52-1.18-8.75-2.05-13.07-.24-1.21-.7-2.37-1.04-3.55-.12-.42-.24-.85-.3-1.28-.14-1.07-.11-2.25,.86-2.82,1.1-.63,2.42-.86,3.68-.31,.31,.13,.66,.43,.76,.72,.5,1.58,1.01,3.16,1.36,4.78,.55,2.51,.87,5.07,1.5,7.56,.57,2.26,.98,4.49,1.04,6.83,.04,1.89,.37,3.77,.56,5.65,.03,.35-.01,.72,0,1.07,.02,1.54-.01,3.08,.08,4.62,.07,1.13,.4,2.25,.44,3.38,.03,.77-.13,1.58-.39,2.31-.23,.67-.75,1.1-1.6,.88-.41-.11-.87-.04-1.31-.03-1.49,.07-2.1-.28-2.35-1.75-.23-1.37-.24-2.77-.34-4.16l.29-.03Z"/><path class="b" d="M26.71,72.74c3.08,.57,5.77,1.16,8.49,1.55,2.5,.35,5.02,.79,7.54,.09,.87-.24,1.74-.29,2.43,.5,.64,.74,.42,1.5,.04,2.23-.79,1.51-1.63,3-2.44,4.5-.43,.8-1.21,1.07-1.93,.75-.57-.25-.97-.92-1.38-1.45-.14-.19,.02-.69-.13-.79-.43-.29-1.34-.68-1.37-.63-.57,1.01-1.08,2.07-1.49,3.16-.04,.11,.58,.63,.93,.69,.49,.08,1.02-.17,1.53-.14,1.35,.09,2.21,1.33,1.65,2.55-.83,1.81-1.77,3.57-2.73,5.31-.5,.91-1.37,1.22-2.36,.83-1-.39-1.26-1.26-.97-2.17,.76-2.33-.65-3.65-2.14-4.97-1.07-.95-2.14-1.9-3.15-2.91-1.32-1.33-2.57-2.72-3.86-4.08-.82-.87-1.32-2.84-.64-3.79,.46-.64,1.42-.9,1.97-1.22Z"/><path class="b" d="M222.44,59.55c1.07,1.36,2,2.75,3.15,3.92,.49,.5,1.44,.57,2.2,.75,.66,.15,1.34,.16,2.01,.27,.83,.13,1.57,.41,1.7,1.39,.13,.99-.33,1.73-1.12,2.21-.74,.46-1.57,.77-2.35,1.15-1.55,.75-3.89-.94-4.67-2.27-1.56-2.62-3.62-4.76-5.97-6.7-1.21-1-2.03-2.52-2.88-3.89-.19-.31,.14-1.36,.39-1.42,.75-.18,1.85-.37,2.33,.03,1.18,.99,1.82,.45,2.72-.32,2.56-2.2,5.19-4.32,7.83-6.43,.73-.59,1-1.12,.59-2.03-.19-.43-.24-1.07-.05-1.48,.15-.33,.73-.52,1.16-.64,.2-.05,.54,.17,.73,.36,2.05,2.16,4.11,4.31,6.09,6.54,.52,.58,.46,1.48-.31,1.86-.45,.22-1.31,.17-1.68-.14-.99-.83-1.64-1.01-2.79-.06-2.51,2.07-5.23,3.9-7.86,5.84-.38,.28-.71,.63-1.21,1.08Z"/><path class="b" d="M19.85,84.77c.83,.08,1.68,.06,2.47,.26,1.34,.33,1.56,1.22,.73,2.32-.79,1.04-1.49,2.15-2.31,3.16-.71,.88-.28,1.29,.53,1.57,1.5,.53,2.99,1.05,4.51,1.52,1.7,.52,3.41,1.04,5.14,1.42,.52,.11,1.15-.24,1.72-.38,.03,0,.06-.05,.09-.08,1.01-.77,2.39-.99,2.98-.47,.64,.57,.56,2.2,.03,3.26-.59,1.19-.99,2.48-1.48,3.73-.22,.55-.4,1.15-.73,1.63-.28,.4-.88,.98-1.15,.9-.57-.18-1.43-.75-1.43-1.15,.01-2.37-1.96-2.69-3.4-3.2-2.61-.93-5.36-1.48-8.05-2.16-.85-.21-1.22,.2-1.15,1.11,.12,1.68,.62,3.36-.22,5.03-.53,1.07-.95,1.41-1.9,.75-1.16-.81-2.25-1.79-3.15-2.87-.32-.38-.15-1.36,.07-1.96,.62-1.62,1.39-3.18,2.09-4.76,.29-.65,.47-1.38,.86-1.96,1.14-1.69,1.17-3.48,.75-5.37-.24-1.07,.8-2.23,1.9-2.18,.36,.02,.72,0,1.08,0v-.11Z"/><path class="b" d="M134.25,116.43c3.57-.86,6.78-1.66,9.99-2.41,4.88-1.15,9.75-2.41,14.67-3.34,2.24-.43,4.61-.3,6.92-.24,2.05,.05,3.19,1.47,3.62,3.29,.32,1.33,.96,2.28,1.95,3.15,1.65,1.46,2.48,3.39,2.83,5.54,.41,2.48-1.7,4.5-4.16,3.95-.54-.12-1.07-.29-1.76-.47,.29-.79,.49-1.55,.83-2.25,1.2-2.52,.45-4.7-1.99-5.99-.93-.49-1.8-1.17-2.54-1.92-.86-.86-1.76-1.37-2.98-1.17-5.59,.92-11.17,1.84-16.75,2.79-1.89,.32-3.75,.8-5.64,1.07-1.01,.14-2.13,.2-3.06-.11-.7-.23-1.18-1.11-1.93-1.88Z"/><path class="b" d="M73.96,45.4c-2.36,.17-4.31-1.98-3.88-4.64,.17-1.05,1.05-1.48,2.06-1,.93,.44,1.83,.98,2.81,1.3,1.39,.46,2.27-.25,2.64-1.95,.22-1.03-.46-1.89-1.78-2.01-1.09-.1-2.21-.04-3.31,.03-4.49,.29-8.1-2.14-7.78-6.8,.23-3.37,3.35-6.1,6.72-6.07,2.3,.02,3.53,3.12,3.07,4.46-.25,.73-.77,1.02-1.61,.66-.9-.39-1.84-.79-2.8-.9-1.22-.14-1.93,.61-1.98,1.73-.05,1.15,.78,2.08,1.96,2.13,.31,.01,.67,.01,.94-.12,1.73-.8,3.55-.5,5.3-.25,1.03,.15,1.98,.88,2.96,1.37,.14,.07,.22,.25,.36,.31,1.55,.64,2.18,1.85,2.3,3.46,.13,1.78-.19,3.46-1.27,4.87-1.6,2.07-3.67,3.41-6.72,3.42Z"/><path class="b" d="M250.37,69.23c-.34,.74-.53,1.36-.89,1.87-.36,.51-.87,.78-1.5,.21-.38-.34-.88-.54-1.32-.8-.71-.42-1.25-.24-1.94,.21-1.39,.9-2.92,1.56-4.37,2.37-1.66,.94-3.29,1.91-4.91,2.92-.61,.38-.73,.84,0,1.39,.75,.57,.61,2.92-.11,3.63-.69,.68-2.31,.44-3.08-.47-.15-.18-.3-.37-.42-.58-1.41-2.42-2.85-4.84-4.21-7.29-.29-.52-.47-1.24-.36-1.8,.3-1.46,2.09-1.87,3.2-.67,.92,.98,1.49,.96,2.63,.22,2.43-1.59,5.05-2.86,7.58-4.3,.65-.37,1.31-.79,1.79-1.34,.24-.28,.26-.97,.09-1.35-.51-1.14-.46-2.03,.32-2.55,.74-.49,1.72-.21,2.45,.82,1.36,1.9,2.69,3.83,4,5.76,.39,.57,.7,1.18,1.03,1.76Z"/><path class="b" d="M32.39,110.63c0,.1,0,.39-.06,.66-.62,2.78-1.23,5.56-1.9,8.33-.35,1.43-1.47,1.97-2.71,1.45-.89-.38-1.06-1.16-1.04-1.98,.03-1.08-.23-1.51-1.48-1.71-2.86-.47-5.66-1.28-8.5-1.93-.77-.18-1.55-.32-2.34-.38-.66-.05-1.08,.27-1.21,1.03-.19,1.13-1.07,1.81-1.96,1.57-1.12-.3-1.28-1.25-1.16-2.19,.3-2.43,.78-4.85,.97-7.29,.11-1.38,.8-2.01,1.93-2.37,.86-.27,1.53-.17,1.7,.98,.21,1.42,.75,2.3,2.52,2.53,2.37,.3,4.67,1.2,7,1.82,.77,.2,1.55,.4,2.33,.51,.86,.12,1.73,.25,1.42-1.2-.18-.83,1.69-2.38,2.65-2.37,.97,.02,1.86,1.17,1.83,2.56Z"/><path class="b" d="M163.31,101.46c-.51,1.21-.8,2.18-1.33,2.99-.14,.21-1.34,.13-1.49-.13-.87-1.5-2.16-1.11-3.39-.91-1.81,.29-3.6,.67-5.41,.96-2.59,.41-5.17,.9-7.78,1.11-3.37,.28-6.76,.33-10.14,.48-.24,.01-.48,0-.72,.02-1.35,.07-2.16-.74-2.03-2.1,.02-.25,.33-.49,.54-.7,1.55-1.49,3.61-1.54,5.54-1.96,1.79-.39,3.55-.9,5.35-1.21,2.23-.39,4.48-.69,6.73-.94,2.64-.3,5.28-.65,7.93-.7,1.43-.02,2.95,.35,4.26,.92,.81,.36,1.31,1.43,1.93,2.17Z"/><path class="b" d="M174.17,132.29c.37,2.11,.1,2.45-1.75,2.9-5.88,1.45-11.76,2.91-17.63,4.42-3.72,.96-7.48,.97-11.27,.79,.35-2.45,.98-2.97,3.34-3.57,8.1-2.06,16.36-3.16,24.61-4.33,.87-.12,1.75-.14,2.68-.21Z"/></svg>