<svg width="58" height="54" viewBox="0 0 58 54" fill="none" xmlns="http://www.w3.org/2000/svg">
<path d="M24.8149 49C24.8149 49.9889 24.5238 50.9556 23.9785 51.7778C23.4331 52.6001 22.658 53.241 21.7511 53.6194C20.8443 53.9978 19.8464 54.0968 18.8837 53.9039C17.9209 53.711 17.0366 53.2348 16.3425 52.5355C15.6485 51.8363 15.1758 50.9454 14.9843 49.9754C14.7928 49.0055 14.8911 48.0002 15.2667 47.0866C15.6423 46.1729 16.2785 45.3921 17.0946 44.8426C17.9108 44.2932 18.8703 44 19.8519 44C21.1661 44.0066 22.4247 44.5355 23.354 45.4717C24.2834 46.408 24.8083 47.6759 24.8149 49V49ZM45.6594 44C44.6778 44 43.7182 44.2932 42.9021 44.8426C42.0859 45.3921 41.4498 46.1729 41.0742 47.0866C40.6985 48.0002 40.6002 49.0055 40.7917 49.9754C40.9832 50.9454 41.4559 51.8363 42.15 52.5355C42.8441 53.2348 43.7284 53.711 44.6911 53.9039C45.6538 54.0968 46.6517 53.9978 47.5586 53.6194C48.4655 53.241 49.2406 52.6001 49.7859 51.7778C50.3313 50.9556 50.6223 49.9889 50.6223 49C50.6158 47.6759 50.0908 46.408 49.1615 45.4717C48.2322 44.5355 46.9736 44.0066 45.6594 44V44ZM57.8931 13.825L51.8879 34.925C51.4694 36.3842 50.5927 37.6675 49.3892 38.5825C48.1858 39.4975 46.7204 39.9948 45.2127 40H20.2986C18.7909 39.9948 17.3255 39.4975 16.122 38.5825C14.9185 37.6675 14.0419 36.3842 13.6234 34.925L7.64298 13.875C7.64298 13.85 7.61816 13.8 7.61816 13.775L5.40964 6H2.97778C2.18803 6 1.43062 5.68393 0.872173 5.12132C0.31373 4.55871 0 3.79565 0 3C0 2.20435 0.31373 1.44129 0.872173 0.87868C1.43062 0.316071 2.18803 0 2.97778 0H6.15409C7.23236 0.00823944 8.27956 0.364847 9.14167 1.01738C10.0038 1.66991 10.6353 2.58392 10.9434 3.625L12.73 10H55.0146C55.4751 10.0027 55.929 10.112 56.3409 10.3197C56.7528 10.5273 57.1118 10.8276 57.3901 11.1974C57.6683 11.5671 57.8584 11.9965 57.9457 12.4521C58.0329 12.9077 58.0149 13.3775 57.8931 13.825V13.825ZM51.069 16H14.4423L19.3308 33.275C19.3943 33.484 19.5224 33.6671 19.6965 33.7975C19.8707 33.928 20.0816 33.9989 20.2986 34H45.2127C45.4296 33.9989 45.6406 33.928 45.8147 33.7975C45.9888 33.6671 46.117 33.484 46.1805 33.275L51.069 16Z" fill="#F2EFEB"/>
</svg>
